<?xml version="1.0" encoding="UTF-8" standalone="no"?>
<!DOCTYPE svg PUBLIC "-//W3C//DTD SVG 1.1//EN" "http://www.w3.org/Graphics/SVG/1.1/DTD/svg11.dtd">
<!-- Created with Vectornator (http://vectornator.io/) -->
<svg height="100%" stroke-miterlimit="10" style="fill-rule:nonzero;clip-rule:evenodd;stroke-linecap:round;stroke-linejoin:round;" version="1.1" viewBox="0 0 48 48" width="100%" xml:space="preserve" xmlns="http://www.w3.org/2000/svg" xmlns:vectornator="http://vectornator.io" xmlns:xlink="http://www.w3.org/1999/xlink">
<defs/>
<g id="Untitled" vectornator:layerName="Untitled">
<path d="M16 6C15.23 6 14.47 6.08 13.75 6.25C11.27 6.82 9.11875 8.325 7.71875 10.375C7.49875 10.705 7.305 11.0563 7.125 11.4062C6.785 12.0563 6.52375 12.7488 6.34375 13.4688C6.28375 13.6887 6.20625 13.9262 6.15625 14.1562C6.04625 14.7563 6 15.37 6 16L6 32C6 32.84 6.1025 33.6575 6.3125 34.4375C6.4225 34.8975 6.57 35.3512 6.75 35.7812C6.99 36.3913 7.29625 36.96 7.65625 37.5C7.89625 37.86 8.1575 38.18 8.4375 38.5C8.8075 38.93 9.195 39.3275 9.625 39.6875C10.115 40.0975 10.6587 40.4713 11.2188 40.7812C11.4188 40.8912 11.6125 41.0038 11.8125 41.0938C12.4525 41.3938 13.1437 41.6 13.8438 41.75C13.9337 41.77 14.035 41.7925 14.125 41.8125C14.735 41.9325 15.36 42 16 42L32 42C32.39 42 32.745 41.9875 33.125 41.9375L33.1562 41.9375C33.4862 41.9075 33.805 41.8512 34.125 41.7812C34.595 41.6812 35.05 41.545 35.5 41.375C35.74 41.285 35.9887 41.1725 36.2188 41.0625C36.4487 40.9625 36.655 40.8388 36.875 40.7188C37.405 40.4188 37.905 40.0775 38.375 39.6875C38.915 39.2475 39.4037 38.7375 39.8438 38.1875C39.9937 37.9975 40.1413 37.8037 40.2812 37.5938C40.5112 37.2537 40.7162 36.9013 40.9062 36.5312C41.3263 35.7112 41.6325 34.8263 41.8125 33.9062C41.9325 33.2863 42 32.65 42 32C42 32 42.01 15.6812 42 15.5312C41.97 14.8213 41.8363 14.1287 41.6562 13.4688C41.5562 13.0487 41.4413 12.64 41.2812 12.25C39.7913 8.59 36.18 6 32 6L16 6ZM17.625 10.2188L30.375 10.2188C34.5098 10.2187 37.7812 13.4902 37.7812 17.625L37.7812 30.375C37.7812 34.5098 34.5098 37.7812 30.375 37.7812L17.625 37.7812C13.4902 37.7812 10.2188 34.5098 10.2188 30.375L10.2188 17.625C10.2187 13.4902 13.4902 10.2188 17.625 10.2188ZM18.4375 11.9688C14.8306 11.9688 11.9687 14.8306 11.9688 18.4375L11.9688 29.5625C11.9688 33.1694 14.8306 36.0313 18.4375 36.0312L29.5625 36.0312C33.1694 36.0312 36.0313 33.1694 36.0312 29.5625L36.0312 18.4375C36.0312 14.8306 33.1694 11.9687 29.5625 11.9688L18.4375 11.9688ZM31 15C31.5523 15 32 15.4477 32 16C32 16.5523 31.5523 17 31 17C30.4477 17 30 16.5523 30 16C30 15.4477 30.4477 15 31 15ZM24 17.1875C27.7614 17.1875 30.8125 20.2386 30.8125 24C30.8125 27.7614 27.7614 30.8125 24 30.8125C20.2386 30.8125 17.1875 27.7614 17.1875 24C17.1875 20.2386 20.2386 17.1875 24 17.1875ZM24 18.7188C21.0874 18.7188 18.7188 21.0874 18.7188 24C18.7188 26.9126 21.0874 29.2812 24 29.2812C26.9126 29.2812 29.2812 26.9126 29.2812 24C29.2812 21.0874 26.9126 18.7188 24 18.7188Z" fill="#000000" fill-rule="evenodd" opacity="1" stroke="none"/>
</g>
</svg>
