<?xml version="1.0" encoding="UTF-8" standalone="no"?>
<!DOCTYPE svg PUBLIC "-//W3C//DTD SVG 1.1//EN" "http://www.w3.org/Graphics/SVG/1.1/DTD/svg11.dtd">
<!-- Created with Vectornator (http://vectornator.io/) -->
<svg height="100%" stroke-miterlimit="10" style="fill-rule:nonzero;clip-rule:evenodd;stroke-linecap:round;stroke-linejoin:round;" version="1.1" viewBox="0 0 48 48" width="100%" xml:space="preserve" xmlns="http://www.w3.org/2000/svg" xmlns:vectornator="http://vectornator.io" xmlns:xlink="http://www.w3.org/1999/xlink">
<defs/>
<g id="Untitled" vectornator:layerName="Untitled">
<path d="M17.216 16C17.076 16 16.831 15.942 16.53 16.27L16.429 16.379C15.976 16.862 15.132 17.762 15.132 19.551C15.132 21.394 16.458 23.308 16.864 23.851C16.891 23.887 16.935 23.952 16.999 24.045C19.174 27.268 21.852 29.627 24.54 30.687C27.924 32.022 28.793 31.921 29.496 31.838L29.774 31.808C30.383 31.753 31.896 30.857 32.125 30.214C32.334 29.629 32.401 29.127 32.412 28.84C32.368 28.819 32.32 28.797 32.269 28.773L31.986 28.634C31.349 28.314 29.207 27.268 28.855 27.139C28.413 27.747 27.593 28.704 27.376 28.953C26.969 29.42 26.249 29.862 25.147 29.307C25.081 29.274 24.991 29.236 24.879 29.187C24.188 28.886 22.749 28.261 21.116 26.807C19.647 25.496 18.642 23.903 18.278 23.278C17.833 22.517 17.956 21.783 18.644 21.098C18.764 20.978 18.901 20.807 19.041 20.638L19.303 20.324C19.421 20.187 19.464 20.098 19.57 19.883L19.605 19.812C19.513 19.608 19.327 19.153 19.103 18.599C18.78 17.802 18.367 16.784 18.124 16.242L18.124 16.242C18.059 16.098 18.01 16.027 17.986 15.997C17.991 16.012 17.957 16.013 17.928 16.011C17.706 16 17.463 16 17.216 16Z" fill="#000000" fill-rule="evenodd" opacity="0.05" stroke="none"/>
<path d="M17.201 15.5C17.175 15.5 17.149 15.5 17.123 15.5C16.94 15.5 16.528 15.531 16.161 15.932L16.064 16.036C15.599 16.532 14.632 17.564 14.632 19.55C14.632 21.493 15.913 23.414 16.464 24.15C16.489 24.183 16.528 24.24 16.585 24.324C18.816 27.63 21.576 30.054 24.357 31.152C27.862 32.534 28.802 32.423 29.554 32.335L29.821 32.306C30.514 32.244 32.272 31.293 32.597 30.381C32.93 29.449 32.944 28.671 32.893 28.504C32.9 28.51 32.661 28.406 32.488 28.322L32.212 28.186C31.589 27.873 29.406 26.805 29.024 26.666C28.664 26.536 28.663 26.533 28.544 26.712C28.195 27.233 27.224 28.369 27.002 28.622C26.36 29.357 25.618 28.981 25.373 28.858C25.301 28.822 25.202 28.78 25.08 28.727C24.412 28.436 23.023 27.832 21.45 26.431C20.034 25.169 19.063 23.628 18.711 23.024C18.235 22.21 18.77 21.677 18.998 21.45C19.128 21.32 19.278 21.137 19.429 20.953L19.684 20.647C19.843 20.461 19.91 20.325 20.02 20.1L20.09 19.957C20.139 19.859 20.148 19.768 20.05 19.574C19.998 19.47 19.805 18.996 19.567 18.407C19.241 17.604 18.826 16.578 18.58 16.033L18.58 16.033C18.351 15.524 18.217 15.518 17.948 15.508C17.717 15.5 17.461 15.5 17.201 15.5Z" fill="#000000" fill-rule="evenodd" opacity="0.07" stroke="none"/>
<path d="M23.7188 4C12.7027 4 3.72375 12.9518 3.71875 23.9688C3.71775 27.3358 4.5755 30.6568 6.1875 33.5938L3.59375 43.0312C3.49975 43.3762 3.59175 43.746 3.84375 44C4.03375 44.192 4.2985 44.3125 4.5625 44.3125C4.6475 44.3125 4.7285 44.3033 4.8125 44.2812L14.5 41.7188C17.328 43.1868 20.4885 43.9678 23.6875 43.9688C34.7115 43.9688 43.6825 35.017 43.6875 24C43.6895 18.661 41.6168 13.651 37.8438 9.875C34.0688 6.098 29.0617 4.002 23.7188 4ZM23.7188 8.21875C27.9347 8.21975 31.895 9.86175 34.875 12.8438C37.855 15.8258 39.501 19.785 39.5 24C39.497 32.699 32.4168 39.7812 23.7188 39.7812L23.6875 39.7812C20.8555 39.7802 18.0782 39.0005 15.6562 37.5625L15.0938 37.2188L9.125 38.7812L10.7188 32.9688L10.3438 32.375C8.76375 29.862 7.9365 26.9498 7.9375 23.9688C7.9415 15.2707 15.0147 8.21875 23.7188 8.21875ZM17.0625 15C16.7465 15 16.2162 15.1188 15.7812 15.5938C15.3462 16.0687 14.125 17.2285 14.125 19.5625C14.125 21.8965 15.8255 24.1527 16.0625 24.4688C16.2995 24.7848 19.3655 29.723 24.1875 31.625C28.1945 33.205 29.005 32.8915 29.875 32.8125C30.745 32.7335 32.6675 31.6705 33.0625 30.5625C33.4575 29.4545 33.4618 28.4793 33.3438 28.2812C33.2247 28.0833 32.9115 27.988 32.4375 27.75C31.9635 27.512 29.6225 26.3455 29.1875 26.1875C28.7525 26.0295 28.442 25.9625 28.125 26.4375C27.809 26.9115 26.902 27.9652 26.625 28.2812C26.348 28.5983 26.0678 28.6443 25.5938 28.4062C25.1197 28.1682 23.5942 27.6785 21.7812 26.0625C20.3712 24.8055 19.4333 23.2562 19.1562 22.7812C18.8792 22.3072 19.1058 22.0495 19.3438 21.8125C19.5568 21.5995 19.8245 21.2457 20.0625 20.9688C20.2995 20.6918 20.3733 20.5035 20.5312 20.1875C20.6893 19.8705 20.619 19.5807 20.5 19.3438C20.383 19.1058 19.4533 16.7818 19.0312 15.8438C18.6763 15.0537 18.3077 15.014 17.9688 15C17.6918 14.988 17.3785 15 17.0625 15Z" fill="#ffffff" fill-rule="evenodd" opacity="1" stroke="none"/>
</g>
</svg>
