<?xml version="1.0" encoding="UTF-8" standalone="no"?>
<!DOCTYPE svg PUBLIC "-//W3C//DTD SVG 1.1//EN" "http://www.w3.org/Graphics/SVG/1.1/DTD/svg11.dtd">
<!-- Created with Vectornator (http://vectornator.io/) -->
<svg height="100%" stroke-miterlimit="10" style="fill-rule:nonzero;clip-rule:evenodd;stroke-linecap:round;stroke-linejoin:round;" version="1.1" viewBox="0 0 128 128" width="100%" xml:space="preserve" xmlns="http://www.w3.org/2000/svg" xmlns:vectornator="http://vectornator.io" xmlns:xlink="http://www.w3.org/1999/xlink">
<defs/>
<g id="icon" vectornator:layerName="icon">
<path d="M64 11C34.7289 11 11 34.7289 11 64C11 93.2711 34.7289 117 64 117C93.2711 117 117 93.2711 117 64C117 34.7289 93.2711 11 64 11ZM34 42.5625L94 42.5625L94 85.4375L34 85.4375L34 42.5625ZM34 42.5625L57.4375 64L34 85.4375L58.125 64.625L64 70L69.875 64.625L94 85.4375L70.5625 64L94 42.5625L64 68.4688L34 42.5625Z" fill="#ffffff" fill-rule="evenodd" opacity="1" stroke="#ffffff" stroke-linecap="round" stroke-linejoin="round" stroke-width="1"/>
</g>
</svg>
