<?xml version="1.0" encoding="UTF-8"?>
<svg width="24px" height="24px" viewBox="0 0 24 24" version="1.1" xmlns="http://www.w3.org/2000/svg" xmlns:xlink="http://www.w3.org/1999/xlink">
    <title>icon-white-email</title>
    <g id="Mobile" stroke="none" stroke-width="1" fill="none" fill-rule="evenodd">
        <g id="Home-Dark-6S" transform="translate(-283.000000, -187.000000)" fill="#FFFFFF">
            <g id="Index-Info" transform="translate(-106.000000, 99.000000)">
                <g id="Contacts" transform="translate(191.000000, 88.000000)">
                    <g id="icon-white-email" transform="translate(198.000000, 0.000000)">
                        <path d="M12,0 C5.37257812,0 0,5.37257812 0,12 C0,18.6274219 5.37257812,24 12,24 C18.6274219,24 24,18.6274219 24,12 C24,5.37257812 18.6274219,0 12,0 Z M19.3125,16.5703125 C19.3125,17.5168594 18.5451562,18.2841562 17.5986562,18.2841562 L6.40134375,18.2841562 C5.45479687,18.2841562 4.6875,17.5168125 4.6875,16.5703125 L4.6875,7.4296875 C4.6875,6.48314062 5.45484375,5.71584375 6.40134375,5.71584375 L17.5986094,5.71584375 C18.5451562,5.71584375 19.3125,6.4831875 19.3125,7.4296875 L19.3125,16.5703125 L19.3125,16.5703125 Z" id="Shape"></path>
                        <path d="M15.6779531,7.81420313 L12,9.9376875 L8.32204687,7.81420313 C7.91217188,7.57757813 7.38810937,7.71801563 7.1514375,8.12784375 C6.9148125,8.53771875 7.05525,9.06178125 7.46507812,9.29845312 L11.5715156,11.6692969 L11.5715625,11.6692031 C11.7017344,11.7442031 11.8498125,11.7837187 11.9999531,11.7839531 C12.1501406,11.7837656 12.2982188,11.7442031 12.4283437,11.6692031 L12.4283906,11.6692969 L16.5348281,9.29845312 C16.9447031,9.06182812 17.0851406,8.53771875 16.8484688,8.12784375 C16.6119375,7.71801563 16.0878281,7.57757813 15.6779531,7.81420313 Z" id="Path"></path>
                    </g>
                </g>
            </g>
        </g>
    </g>
</svg>