<?xml version="1.0" encoding="UTF-8" standalone="no"?>
<!DOCTYPE svg PUBLIC "-//W3C//DTD SVG 1.1//EN" "http://www.w3.org/Graphics/SVG/1.1/DTD/svg11.dtd">
<!-- Created with Vectornator (http://vectornator.io/) -->
<svg height="100%" stroke-miterlimit="10" style="fill-rule:nonzero;clip-rule:evenodd;stroke-linecap:round;stroke-linejoin:round;" version="1.1" viewBox="0 0 48 48" width="100%" xml:space="preserve" xmlns="http://www.w3.org/2000/svg" xmlns:vectornator="http://vectornator.io" xmlns:xlink="http://www.w3.org/1999/xlink">
<defs/>
<g id="Untitled" vectornator:layerName="Untitled">
<path d="M24 4C12.955 4 4 12.955 4 24C4 35.045 12.955 44 24 44C35.045 44 44 35.045 44 24C44 12.955 35.045 4 24 4ZM30.875 15.6875C32.5158 15.3287 33.0007 16.0252 32.625 18.2812C32.265 20.4433 31.203 27.6075 30.375 32.0625C29.884 34.7045 28.7945 35.018 27.0625 33.875C26.2295 33.325 22.038 30.528 21.125 29.875C20.292 29.28 19.1215 28.5662 20.5625 27.1562C21.0755 26.6543 24.4435 23.4667 27.0625 20.9688C27.4055 20.6407 26.9897 20.0807 26.5938 20.3438C23.0637 22.6848 18.1542 25.952 17.5312 26.375C16.5902 27.014 15.6845 27.3097 14.0625 26.8438C12.8365 26.4918 11.6535 26.0662 11.1875 25.9062C9.3925 25.2903 9.8195 24.4858 11.5625 23.7188C18.5525 20.6437 27.5948 16.894 28.8438 16.375C29.6625 16.0355 30.3281 15.8071 30.875 15.6875Z" fill="#000000" fill-rule="evenodd" opacity="1" stroke="none"/>
</g>
</svg>
